<svg xmlns="http://www.w3.org/2000/svg" xmlns:xlink="http://www.w3.org/1999/xlink" version="1.1" width="245.7601pt" height="245.7601pt" viewBox="0 0 245.7601 245.7601">
<g id="layer_1" data-name="">
<path transform="matrix(1,0,0,-1,0,245.7601)" d="M127.8567 145.2124 121.4067 111.7962H108.5355L112.6774 133.6691 95.5891 111.7962 86.8598 133.6691 82.7178 111.7962H69.7714L76.2214 145.2124C76.6627 147.541 77.7932 149.5165 79.6119 151.1362 81.4303 152.7559 83.3984 153.5666 85.5184 153.5666H91.1968L99.5607 132.5299 116.03 153.5666H121.7098C123.8298 153.5666 125.4949 152.7559 126.7041 151.1362 127.9142 149.5165 128.2992 147.541 127.8567 145.2124ZM175.6318 145.2124 170.8313 120.1501C170.3897 117.8215 169.2471 115.8463 167.4028 114.2263 165.5597 112.6066 163.5783 111.7962 161.4583 111.7962H130.4918L132.6424 122.9607H158.4601L159.2853 127.137H133.4676L135.616 138.2255H161.4336L162.184 142.4021H136.3666L138.5172 153.5666H169.4823C171.6026 153.5666 173.2677 152.7559 174.4792 151.1362 175.6882 149.5165 176.0732 147.541 175.6318 145.2124"/>
</g>
</svg>
